<svg width="88" height="88" viewBox="0 0 88 88" fill="none" xmlns="http://www.w3.org/2000/svg">
<path d="M44 40.3333C50.27 40.3333 55 35.6033 55 29.3333C55 23.0633 50.27 18.3333 44 18.3333C37.73 18.3333 33 23.0633 33 29.3333C33 35.6033 37.73 40.3333 44 40.3333ZM44 25.6667C46.2 25.6667 47.6667 27.1333 47.6667 29.3333C47.6667 31.5333 46.2 33 44 33C41.8 33 40.3334 31.5333 40.3334 29.3333C40.3334 27.1333 41.8 25.6667 44 25.6667ZM47.6667 44H40.3334C30.2134 44 22 52.2133 22 62.3333V64.1667C22 67.21 24.4567 69.6667 27.5 69.6667H60.5C63.5434 69.6667 66 67.21 66 64.1667V62.3333C66 52.2133 57.7867 44 47.6667 44ZM29.3334 62.3333C29.3334 56.2833 34.2834 51.3333 40.3334 51.3333H47.6667C53.7167 51.3333 58.6667 56.2833 58.6667 62.3333H29.3334ZM23.8334 40.3333C25.5567 40.3333 27.1334 39.8933 28.49 39.1233C26.9522 36.6749 26.0116 33.8992 25.7441 31.0203C25.4766 28.1413 25.8897 25.2399 26.95 22.55C25.9967 22.22 24.9334 22 23.8334 22C18.5534 22 14.6667 25.8867 14.6667 31.1667C14.6667 36.4467 18.5534 40.3333 23.8334 40.3333ZM22.4034 44H20.1667C13.09 44 7.33337 49.7567 7.33337 56.8333V60.5C7.33337 61.5267 8.14004 62.3333 9.16671 62.3333H14.6667C14.6667 55.1467 17.6367 48.6567 22.4034 44ZM64.1667 40.3333C69.4467 40.3333 73.3334 36.4467 73.3334 31.1667C73.3334 25.8867 69.4467 22 64.1667 22C63.03 22 62.0034 22.22 61.05 22.55C62.1104 25.2399 62.5235 28.1413 62.256 31.0203C61.9885 33.8992 61.0478 36.6749 59.51 39.1233C60.8667 39.8933 62.4067 40.3333 64.1667 40.3333ZM67.8334 44H65.5967C68.0467 46.3832 69.9938 49.2337 71.3227 52.3827C72.6516 55.5318 73.3353 58.9154 73.3334 62.3333H78.8334C79.86 62.3333 80.6667 61.5267 80.6667 60.5V56.8333C80.6667 49.7567 74.91 44 67.8334 44Z" fill="white"/>
</svg>
