<svg width="74" height="74" viewBox="0 0 74 74" fill="none" xmlns="http://www.w3.org/2000/svg">
<path d="M6.16675 67.8333C6.16675 63.4704 6.16675 61.2905 7.52341 59.94C8.877 58.5833 11.0538 58.5833 15.4167 58.5833C19.7797 58.5833 21.9596 58.5833 23.3101 59.94C24.6667 61.2936 24.6667 63.4735 24.6667 67.8333V40.0833C24.6667 35.7204 24.6667 33.5405 26.0234 32.19C27.377 30.8333 29.5569 30.8333 33.9167 30.8333H40.0834C44.4463 30.8333 46.6262 30.8333 47.9767 32.19C49.3334 33.5436 49.3334 35.7235 49.3334 40.0833V67.8333V58.5833C49.3334 54.2204 49.3334 52.0405 50.6901 50.69C52.0437 49.3333 54.2205 49.3333 58.5834 49.3333C62.9463 49.3333 65.1262 49.3333 66.4767 50.69C67.8334 52.0436 67.8334 54.2235 67.8334 58.5833V67.8333" stroke="white" stroke-width="3" stroke-linecap="round"/>
<path d="M34.367 9.32091C35.5386 7.215 36.1245 6.16666 37.0001 6.16666C37.8758 6.16666 38.4616 7.215 39.6333 9.32091L39.9355 9.86358C40.2685 10.4617 40.435 10.7577 40.694 10.9551C40.956 11.1524 41.2798 11.2264 41.9273 11.3713L42.5131 11.507C44.7886 12.0219 45.9264 12.2778 46.1977 13.1473C46.469 14.0168 45.692 14.9264 44.1411 16.7394L43.7403 17.2081C43.2994 17.723 43.0774 17.9789 42.9787 18.2996C42.88 18.6202 42.914 18.9625 42.9787 19.6501L43.0404 20.276C43.2747 22.6964 43.3919 23.9082 42.6858 24.4447C41.9766 24.9842 40.9098 24.4909 38.7792 23.5104L38.2304 23.2576C37.623 22.9801 37.3208 22.8382 37.0001 22.8382C36.6795 22.8382 36.3773 22.9801 35.7699 23.2576L35.221 23.5104C33.0905 24.4909 32.0236 24.9842 31.3145 24.4447C30.6053 23.9082 30.7255 22.6964 30.9599 20.276L31.0215 19.6501C31.0863 18.9625 31.1202 18.6202 31.0215 18.2996C30.9229 17.9789 30.7009 17.723 30.26 17.2081L29.8591 16.7394C28.3082 14.9264 27.5312 14.0199 27.8025 13.1473C28.0739 12.2778 29.2116 12.0219 31.4871 11.507L32.073 11.3713C32.7205 11.2264 33.0442 11.1555 33.3063 10.9551C33.5653 10.7577 33.7318 10.4617 34.0648 9.86358L34.367 9.32091Z" stroke="white" stroke-width="3"/>
</svg>
