<svg width="69" height="69" viewBox="0 0 69 69" fill="none" xmlns="http://www.w3.org/2000/svg">
<path d="M34.5 3.75726C33.2912 5.18227 31.6912 6.65553 29.9669 8.25129C27.7073 10.3422 25.2508 12.6056 23.3027 14.9432C21.355 17.2807 19.9508 19.6775 19.6304 21.9502C19.3251 24.1137 19.888 26.2358 22.0932 28.5866H46.9069C49.112 26.2358 49.675 24.1137 49.3698 21.9504C49.049 19.6775 47.645 17.2807 45.6971 14.9433C43.7492 12.606 41.2927 10.3424 39.033 8.25143C37.3089 6.65567 35.7088 5.18227 34.5 3.75726ZM4.3125 9.18023C2.15625 11.3365 2.15625 13.4927 2.15625 15.649H3.09961V25.2173H2.15625V27.6431H3.09961V65.2427H5.52539V27.6431H6.46875V25.2173H5.52539V15.649H6.46875C6.46875 13.4927 6.46875 11.3365 4.3125 9.18023ZM64.6875 9.18023C62.5312 11.3365 62.5312 13.4927 62.5312 15.649H63.4746V25.2173H62.5312V27.6431H63.4746V65.2427H65.9004V27.6431H66.8438V25.2173H65.9004V15.649H66.8438C66.8438 13.4927 66.8438 11.3365 64.6875 9.18023ZM15.0938 27.6431C12.9375 29.7994 10.7812 31.9556 10.7812 34.1119V37.2115H19.4062V34.1119C19.4062 31.9556 17.25 29.7994 15.0938 27.6431ZM53.9062 27.6431C51.75 29.7994 49.5938 31.9556 49.5938 34.1119V37.2115H58.2188V34.1119C58.2188 31.9556 56.0625 29.7994 53.9062 27.6431ZM22.7754 31.0123V32.899H46.2246V31.0123H22.7754ZM22.7754 35.3248V65.2427H28.0312V47.0494C28.0312 44.8931 32.3438 40.5806 34.5 38.4244C36.6562 40.5806 40.9688 44.8931 40.9688 47.0494V65.2427H46.2246V35.3248H22.7754ZM9.83789 39.6373V65.2427H20.3496V39.6373H9.83789ZM48.6504 39.6373V65.2427H59.1621V39.6373H48.6504ZM15.0938 40.5806C15.0938 40.5806 17.25 41.6903 17.25 42.7369V47.0494H12.9375V42.7369C12.9375 41.6903 15.0938 40.5806 15.0938 40.5806ZM53.9062 41.317C53.9062 41.317 56.0625 42.4265 56.0625 43.4732V47.7857H51.75V43.4732C51.75 42.4265 53.9062 41.317 53.9062 41.317ZM15.0938 49.2056C15.0938 49.2056 17.25 50.3153 17.25 51.3619V55.6744H12.9375V51.3619C12.9375 50.3153 15.0938 49.2056 15.0938 49.2056ZM53.9062 49.2056C53.9062 49.2056 56.0625 50.3153 56.0625 51.3619V55.6744H51.75V51.3619C51.75 50.3153 53.9062 49.2056 53.9062 49.2056ZM15.0938 57.8306C15.0938 57.8306 17.25 58.9403 17.25 59.9869V64.2994H12.9375V59.9869C12.9375 58.9403 15.0938 57.8306 15.0938 57.8306ZM53.9062 57.8306C53.9062 57.8306 56.0625 58.9403 56.0625 59.9869V64.2994H51.75V59.9869C51.75 58.9403 53.9062 57.8306 53.9062 57.8306Z" fill="white"/>
</svg>
