<svg width="51" height="45" viewBox="0 0 51 45" fill="none" xmlns="http://www.w3.org/2000/svg">
<path d="M48.6581 8.98756C48.3944 9.95131 47.2222 12.3753 45.2295 14.6824C43.9108 40.032 19.2361 48.2677 2.32725 39.7692C0.0121652 36.7027 10.6791 37.9585 14.5767 32.0884C-0.163663 24.5828 1.00853 4.51926 3.96831 5.33698C10.9136 14.6532 22.108 15.5002 23.9249 14.6532C23.9249 12.5213 23.0164 7.87778 28.0569 3.99357C30.958 1.92005 37.0241 0.0801598 42.5041 6.00869C43.4419 6.62199 44.7899 6.88483 46.8119 6.44676C48.0134 5.83346 49.5959 6.24233 48.7754 8.37426L48.6581 8.98756Z" stroke="white" stroke-opacity="0.55" stroke-width="4" stroke-linecap="round" stroke-linejoin="round"/>
</svg>
